{
 "cells": [
  {
   "cell_type": "code",
   "execution_count": 1,
   "id": "efab73b9",
   "metadata": {},
   "outputs": [
    {
     "name": "stdout",
     "output_type": "stream",
     "text": [
      "/Users/chihirot/ikema_asr/data\n"
     ]
    }
   ],
   "source": [
    "%cd /Users/chihirot/ikema_asr/data"
   ]
  },
  {
   "cell_type": "code",
   "execution_count": 4,
   "id": "5392e6f1",
   "metadata": {},
   "outputs": [
    {
     "name": "stderr",
     "output_type": "stream",
     "text": [
      "ffmpeg version 6.1.2 Copyright (c) 2000-2024 the FFmpeg developers\n",
      "  built with Apple clang version 16.0.0 (clang-1600.0.26.6)\n",
      "  configuration: --prefix='/opt/homebrew/Cellar/ffmpeg@6/6.1.2_9' --enable-shared --enable-pthreads --enable-version3 --cc=clang --host-cflags= --host-ldflags='-Wl,-ld_classic' --enable-ffplay --enable-gnutls --enable-gpl --enable-libaom --enable-libaribb24 --enable-libbluray --enable-libdav1d --enable-libharfbuzz --enable-libjxl --enable-libmp3lame --enable-libopus --enable-librav1e --enable-librist --enable-librubberband --enable-libsnappy --enable-libsrt --enable-libssh --enable-libsvtav1 --enable-libtesseract --enable-libtheora --enable-libvidstab --enable-libvmaf --enable-libvorbis --enable-libvpx --enable-libwebp --enable-libx264 --enable-libx265 --enable-libxml2 --enable-libxvid --enable-lzma --enable-libfontconfig --enable-libfreetype --enable-frei0r --enable-libass --enable-libopencore-amrnb --enable-libopencore-amrwb --enable-libopenjpeg --enable-libspeex --enable-libsoxr --enable-libzmq --enable-libzimg --disable-libjack --disable-indev=jack --enable-videotoolbox --enable-audiotoolbox --enable-neon\n",
      "  libavutil      58. 29.100 / 58. 29.100\n",
      "  libavcodec     60. 31.102 / 60. 31.102\n",
      "  libavformat    60. 16.100 / 60. 16.100\n",
      "  libavdevice    60.  3.100 / 60.  3.100\n",
      "  libavfilter     9. 12.100 /  9. 12.100\n",
      "  libswscale      7.  5.100 /  7.  5.100\n",
      "  libswresample   4. 12.100 /  4. 12.100\n",
      "  libpostproc    57.  3.100 / 57.  3.100\n",
      "Input #0, mov,mp4,m4a,3gp,3g2,mj2, from './unannotated/202508/eval_1.MOV':\n",
      "  Metadata:\n",
      "    major_brand     : qt  \n",
      "    minor_version   : 0\n",
      "    compatible_brands: qt  \n",
      "    creation_time   : 2025-08-01T01:37:54.000000Z\n",
      "    com.apple.quicktime.location.accuracy.horizontal: 7.543321\n",
      "    com.apple.quicktime.full-frame-rate-playback-intent: 0\n",
      "    com.apple.quicktime.location.ISO6709: +24.7993+125.2756+022.208/\n",
      "    com.apple.quicktime.make: Apple\n",
      "    com.apple.quicktime.model: iPhone 13\n",
      "    com.apple.quicktime.software: 18.3.2\n",
      "    com.apple.quicktime.creationdate: 2025-08-01T10:37:54+0900\n",
      "  Duration: 00:14:51.95, start: 0.000000, bitrate: 8866 kb/s\n",
      "  Stream #0:0[0x1](und): Video: hevc (Main 10) (hvc1 / 0x31637668), yuv420p10le(tv, bt2020nc/bt2020/arib-std-b67), 1920x1080, 8542 kb/s, 30 fps, 30 tbr, 600 tbn (default)\n",
      "    Metadata:\n",
      "      creation_time   : 2025-08-01T01:37:54.000000Z\n",
      "      handler_name    : Core Media Video\n",
      "      vendor_id       : [0][0][0][0]\n",
      "      encoder         : HEVC\n",
      "    Side data:\n",
      "      DOVI configuration record: version: 1.0, profile: 8, level: 4, rpu flag: 1, el flag: 0, bl flag: 1, compatibility id: 4\n",
      "  Stream #0:1[0x2](und): Audio: aac (LC) (mp4a / 0x6134706D), 44100 Hz, stereo, fltp, 191 kb/s (default)\n",
      "    Metadata:\n",
      "      creation_time   : 2025-08-01T01:37:54.000000Z\n",
      "      handler_name    : Core Media Audio\n",
      "      vendor_id       : [0][0][0][0]\n",
      "  Stream #0:2[0x3](und): Data: none (mebx / 0x7862656D) (default)\n",
      "    Metadata:\n",
      "      creation_time   : 2025-08-01T01:37:54.000000Z\n",
      "      handler_name    : Core Media Metadata\n",
      "  Stream #0:3[0x4](und): Data: none (mebx / 0x7862656D), 48 kb/s (default)\n",
      "    Metadata:\n",
      "      creation_time   : 2025-08-01T01:37:54.000000Z\n",
      "      handler_name    : Core Media Metadata\n",
      "  Stream #0:4[0x5](und): Data: none (mebx / 0x7862656D), 65 kb/s (default)\n",
      "    Metadata:\n",
      "      creation_time   : 2025-08-01T01:37:54.000000Z\n",
      "      handler_name    : Core Media Metadata\n",
      "  Stream #0:5[0x6](und): Data: none (mebx / 0x7862656D), 2 kb/s (default)\n",
      "    Metadata:\n",
      "      creation_time   : 2025-08-01T01:37:54.000000Z\n",
      "      handler_name    : Core Media Metadata\n",
      "  Stream #0:6[0x7](und): Data: none (mebx / 0x7862656D) (default)\n",
      "    Metadata:\n",
      "      creation_time   : 2025-08-01T01:37:54.000000Z\n",
      "      handler_name    : Core Media Metadata\n",
      "Stream mapping:\n",
      "  Stream #0:0 -> #0:0 (hevc (native) -> h264 (libx264))\n",
      "  Stream #0:1 -> #0:1 (aac (native) -> aac (native))\n",
      "Press [q] to stop, [?] for help\n",
      "[libx264 @ 0x14ee14ca0] using cpu capabilities: ARMv8 NEON\n",
      "[libx264 @ 0x14ee14ca0] profile High 10, level 4.0, 4:2:0, 10-bit\n",
      "[libx264 @ 0x14ee14ca0] 264 - core 164 r3108 31e19f9 - H.264/MPEG-4 AVC codec - Copyleft 2003-2023 - http://www.videolan.org/x264.html - options: cabac=1 ref=3 deblock=1:0:0 analyse=0x3:0x113 me=hex subme=7 psy=1 psy_rd=1.00:0.00 mixed_ref=1 me_range=16 chroma_me=1 trellis=1 8x8dct=1 cqm=0 deadzone=21,11 fast_pskip=1 chroma_qp_offset=-2 threads=18 lookahead_threads=3 sliced_threads=0 nr=0 decimate=1 interlaced=0 bluray_compat=0 constrained_intra=0 bframes=3 b_pyramid=2 b_adapt=1 b_bias=0 direct=1 weightb=1 open_gop=0 weightp=2 keyint=250 keyint_min=25 scenecut=40 intra_refresh=0 rc_lookahead=40 rc=crf mbtree=1 crf=23.0 qcomp=0.60 qpmin=0 qpmax=81 qpstep=4 ip_ratio=1.40 aq=1:1.00\n",
      "Output #0, mp4, to './unannotated/202508/eval_1.mp4':\n",
      "  Metadata:\n",
      "    major_brand     : qt  \n",
      "    minor_version   : 0\n",
      "    compatible_brands: qt  \n",
      "    com.apple.quicktime.creationdate: 2025-08-01T10:37:54+0900\n",
      "    com.apple.quicktime.location.accuracy.horizontal: 7.543321\n",
      "    com.apple.quicktime.full-frame-rate-playback-intent: 0\n",
      "    com.apple.quicktime.location.ISO6709: +24.7993+125.2756+022.208/\n",
      "    com.apple.quicktime.make: Apple\n",
      "    com.apple.quicktime.model: iPhone 13\n",
      "    com.apple.quicktime.software: 18.3.2\n",
      "    encoder         : Lavf60.16.100\n",
      "  Stream #0:0(und): Video: h264 (avc1 / 0x31637661), yuv420p10le(tv, bt2020nc/bt2020/arib-std-b67, progressive), 1920x1080, q=2-31, 30 fps, 15360 tbn (default)\n",
      "    Metadata:\n",
      "      creation_time   : 2025-08-01T01:37:54.000000Z\n",
      "      handler_name    : Core Media Video\n",
      "      vendor_id       : [0][0][0][0]\n",
      "      encoder         : Lavc60.31.102 libx264\n",
      "    Side data:\n",
      "      cpb: bitrate max/min/avg: 0/0/0 buffer size: 0 vbv_delay: N/A\n",
      "      DOVI configuration record: version: 1.0, profile: 8, level: 4, rpu flag: 1, el flag: 0, bl flag: 1, compatibility id: 4\n",
      "  Stream #0:1(und): Audio: aac (LC) (mp4a / 0x6134706D), 44100 Hz, stereo, fltp, 128 kb/s (default)\n",
      "    Metadata:\n",
      "      creation_time   : 2025-08-01T01:37:54.000000Z\n",
      "      handler_name    : Core Media Audio\n",
      "      vendor_id       : [0][0][0][0]\n",
      "      encoder         : Lavc60.31.102 aac\n",
      "frame=17984 fps= 35 q=38.0 size=  203776kB time=00:10:01.39 bitrate=2775.8kbits/s speed=1.16x    \r"
     ]
    },
    {
     "ename": "KeyboardInterrupt",
     "evalue": "",
     "output_type": "error",
     "traceback": [
      "\u001b[31m---------------------------------------------------------------------------\u001b[39m",
      "\u001b[31mKeyboardInterrupt\u001b[39m                         Traceback (most recent call last)",
      "\u001b[36mCell\u001b[39m\u001b[36m \u001b[39m\u001b[32mIn[4]\u001b[39m\u001b[32m, line 12\u001b[39m\n\u001b[32m      5\u001b[39m input_file = os.path.join(data_dir, \u001b[33m\"\u001b[39m\u001b[33meval_1.MOV\u001b[39m\u001b[33m\"\u001b[39m)\n\u001b[32m      6\u001b[39m output_file = os.path.join(data_dir, \u001b[33m\"\u001b[39m\u001b[33meval_1.mp4\u001b[39m\u001b[33m\"\u001b[39m)\n\u001b[32m      8\u001b[39m (\n\u001b[32m      9\u001b[39m     \u001b[43mffmpeg\u001b[49m\n\u001b[32m     10\u001b[39m \u001b[43m    \u001b[49m\u001b[43m.\u001b[49m\u001b[43minput\u001b[49m\u001b[43m(\u001b[49m\u001b[43minput_file\u001b[49m\u001b[43m)\u001b[49m\n\u001b[32m     11\u001b[39m \u001b[43m    \u001b[49m\u001b[43m.\u001b[49m\u001b[43moutput\u001b[49m\u001b[43m(\u001b[49m\u001b[43moutput_file\u001b[49m\u001b[43m,\u001b[49m\u001b[43m \u001b[49m\u001b[43mvcodec\u001b[49m\u001b[43m=\u001b[49m\u001b[33;43m\"\u001b[39;49m\u001b[33;43mlibx264\u001b[39;49m\u001b[33;43m\"\u001b[39;49m\u001b[43m,\u001b[49m\u001b[43m \u001b[49m\u001b[43macodec\u001b[49m\u001b[43m=\u001b[49m\u001b[33;43m\"\u001b[39;49m\u001b[33;43maac\u001b[39;49m\u001b[33;43m\"\u001b[39;49m\u001b[43m)\u001b[49m\n\u001b[32m---> \u001b[39m\u001b[32m12\u001b[39m \u001b[43m    \u001b[49m\u001b[43m.\u001b[49m\u001b[43mrun\u001b[49m\u001b[43m(\u001b[49m\u001b[43m)\u001b[49m\n\u001b[32m     13\u001b[39m )\n",
      "\u001b[36mFile \u001b[39m\u001b[32m~/ikema_asr/.venv/lib/python3.12/site-packages/ffmpeg/_run.py:322\u001b[39m, in \u001b[36mrun\u001b[39m\u001b[34m(stream_spec, cmd, capture_stdout, capture_stderr, input, quiet, overwrite_output)\u001b[39m\n\u001b[32m    299\u001b[39m \u001b[38;5;250m\u001b[39m\u001b[33;03m\"\"\"Invoke ffmpeg for the supplied node graph.\u001b[39;00m\n\u001b[32m    300\u001b[39m \n\u001b[32m    301\u001b[39m \u001b[33;03mArgs:\u001b[39;00m\n\u001b[32m   (...)\u001b[39m\u001b[32m    311\u001b[39m \u001b[33;03mReturns: (out, err) tuple containing captured stdout and stderr data.\u001b[39;00m\n\u001b[32m    312\u001b[39m \u001b[33;03m\"\"\"\u001b[39;00m\n\u001b[32m    313\u001b[39m process = run_async(\n\u001b[32m    314\u001b[39m     stream_spec,\n\u001b[32m    315\u001b[39m     cmd,\n\u001b[32m   (...)\u001b[39m\u001b[32m    320\u001b[39m     overwrite_output=overwrite_output,\n\u001b[32m    321\u001b[39m )\n\u001b[32m--> \u001b[39m\u001b[32m322\u001b[39m out, err = \u001b[43mprocess\u001b[49m\u001b[43m.\u001b[49m\u001b[43mcommunicate\u001b[49m\u001b[43m(\u001b[49m\u001b[38;5;28;43minput\u001b[39;49m\u001b[43m)\u001b[49m\n\u001b[32m    323\u001b[39m retcode = process.poll()\n\u001b[32m    324\u001b[39m \u001b[38;5;28;01mif\u001b[39;00m retcode:\n",
      "\u001b[36mFile \u001b[39m\u001b[32m/opt/homebrew/Cellar/python@3.12/3.12.6/Frameworks/Python.framework/Versions/3.12/lib/python3.12/subprocess.py:1201\u001b[39m, in \u001b[36mPopen.communicate\u001b[39m\u001b[34m(self, input, timeout)\u001b[39m\n\u001b[32m   1199\u001b[39m         stderr = \u001b[38;5;28mself\u001b[39m.stderr.read()\n\u001b[32m   1200\u001b[39m         \u001b[38;5;28mself\u001b[39m.stderr.close()\n\u001b[32m-> \u001b[39m\u001b[32m1201\u001b[39m     \u001b[38;5;28;43mself\u001b[39;49m\u001b[43m.\u001b[49m\u001b[43mwait\u001b[49m\u001b[43m(\u001b[49m\u001b[43m)\u001b[49m\n\u001b[32m   1202\u001b[39m \u001b[38;5;28;01melse\u001b[39;00m:\n\u001b[32m   1203\u001b[39m     \u001b[38;5;28;01mif\u001b[39;00m timeout \u001b[38;5;129;01mis\u001b[39;00m \u001b[38;5;129;01mnot\u001b[39;00m \u001b[38;5;28;01mNone\u001b[39;00m:\n",
      "\u001b[36mFile \u001b[39m\u001b[32m/opt/homebrew/Cellar/python@3.12/3.12.6/Frameworks/Python.framework/Versions/3.12/lib/python3.12/subprocess.py:1264\u001b[39m, in \u001b[36mPopen.wait\u001b[39m\u001b[34m(self, timeout)\u001b[39m\n\u001b[32m   1262\u001b[39m     endtime = _time() + timeout\n\u001b[32m   1263\u001b[39m \u001b[38;5;28;01mtry\u001b[39;00m:\n\u001b[32m-> \u001b[39m\u001b[32m1264\u001b[39m     \u001b[38;5;28;01mreturn\u001b[39;00m \u001b[38;5;28;43mself\u001b[39;49m\u001b[43m.\u001b[49m\u001b[43m_wait\u001b[49m\u001b[43m(\u001b[49m\u001b[43mtimeout\u001b[49m\u001b[43m=\u001b[49m\u001b[43mtimeout\u001b[49m\u001b[43m)\u001b[49m\n\u001b[32m   1265\u001b[39m \u001b[38;5;28;01mexcept\u001b[39;00m \u001b[38;5;167;01mKeyboardInterrupt\u001b[39;00m:\n\u001b[32m   1266\u001b[39m     \u001b[38;5;66;03m# https://bugs.python.org/issue25942\u001b[39;00m\n\u001b[32m   1267\u001b[39m     \u001b[38;5;66;03m# The first keyboard interrupt waits briefly for the child to\u001b[39;00m\n\u001b[32m   1268\u001b[39m     \u001b[38;5;66;03m# exit under the common assumption that it also received the ^C\u001b[39;00m\n\u001b[32m   1269\u001b[39m     \u001b[38;5;66;03m# generated SIGINT and will exit rapidly.\u001b[39;00m\n\u001b[32m   1270\u001b[39m     \u001b[38;5;28;01mif\u001b[39;00m timeout \u001b[38;5;129;01mis\u001b[39;00m \u001b[38;5;129;01mnot\u001b[39;00m \u001b[38;5;28;01mNone\u001b[39;00m:\n",
      "\u001b[36mFile \u001b[39m\u001b[32m/opt/homebrew/Cellar/python@3.12/3.12.6/Frameworks/Python.framework/Versions/3.12/lib/python3.12/subprocess.py:2053\u001b[39m, in \u001b[36mPopen._wait\u001b[39m\u001b[34m(self, timeout)\u001b[39m\n\u001b[32m   2051\u001b[39m \u001b[38;5;28;01mif\u001b[39;00m \u001b[38;5;28mself\u001b[39m.returncode \u001b[38;5;129;01mis\u001b[39;00m \u001b[38;5;129;01mnot\u001b[39;00m \u001b[38;5;28;01mNone\u001b[39;00m:\n\u001b[32m   2052\u001b[39m     \u001b[38;5;28;01mbreak\u001b[39;00m  \u001b[38;5;66;03m# Another thread waited.\u001b[39;00m\n\u001b[32m-> \u001b[39m\u001b[32m2053\u001b[39m (pid, sts) = \u001b[38;5;28;43mself\u001b[39;49m\u001b[43m.\u001b[49m\u001b[43m_try_wait\u001b[49m\u001b[43m(\u001b[49m\u001b[32;43m0\u001b[39;49m\u001b[43m)\u001b[49m\n\u001b[32m   2054\u001b[39m \u001b[38;5;66;03m# Check the pid and loop as waitpid has been known to\u001b[39;00m\n\u001b[32m   2055\u001b[39m \u001b[38;5;66;03m# return 0 even without WNOHANG in odd situations.\u001b[39;00m\n\u001b[32m   2056\u001b[39m \u001b[38;5;66;03m# http://bugs.python.org/issue14396.\u001b[39;00m\n\u001b[32m   2057\u001b[39m \u001b[38;5;28;01mif\u001b[39;00m pid == \u001b[38;5;28mself\u001b[39m.pid:\n",
      "\u001b[36mFile \u001b[39m\u001b[32m/opt/homebrew/Cellar/python@3.12/3.12.6/Frameworks/Python.framework/Versions/3.12/lib/python3.12/subprocess.py:2011\u001b[39m, in \u001b[36mPopen._try_wait\u001b[39m\u001b[34m(self, wait_flags)\u001b[39m\n\u001b[32m   2009\u001b[39m \u001b[38;5;250m\u001b[39m\u001b[33;03m\"\"\"All callers to this function MUST hold self._waitpid_lock.\"\"\"\u001b[39;00m\n\u001b[32m   2010\u001b[39m \u001b[38;5;28;01mtry\u001b[39;00m:\n\u001b[32m-> \u001b[39m\u001b[32m2011\u001b[39m     (pid, sts) = \u001b[43mos\u001b[49m\u001b[43m.\u001b[49m\u001b[43mwaitpid\u001b[49m\u001b[43m(\u001b[49m\u001b[38;5;28;43mself\u001b[39;49m\u001b[43m.\u001b[49m\u001b[43mpid\u001b[49m\u001b[43m,\u001b[49m\u001b[43m \u001b[49m\u001b[43mwait_flags\u001b[49m\u001b[43m)\u001b[49m\n\u001b[32m   2012\u001b[39m \u001b[38;5;28;01mexcept\u001b[39;00m \u001b[38;5;167;01mChildProcessError\u001b[39;00m:\n\u001b[32m   2013\u001b[39m     \u001b[38;5;66;03m# This happens if SIGCLD is set to be ignored or waiting\u001b[39;00m\n\u001b[32m   2014\u001b[39m     \u001b[38;5;66;03m# for child processes has otherwise been disabled for our\u001b[39;00m\n\u001b[32m   2015\u001b[39m     \u001b[38;5;66;03m# process.  This child is dead, we can't get the status.\u001b[39;00m\n\u001b[32m   2016\u001b[39m     pid = \u001b[38;5;28mself\u001b[39m.pid\n",
      "\u001b[31mKeyboardInterrupt\u001b[39m: "
     ]
    }
   ],
   "source": [
    "import ffmpeg\n",
    "import os\n",
    "\n",
    "data_dir = \"./unannotated/202508\"\n",
    "input_file = os.path.join(data_dir, \"eval_1.MOV\")\n",
    "output_file = os.path.join(data_dir, \"eval_1.mp4\")\n",
    "\n",
    "(\n",
    "    ffmpeg\n",
    "    .input(input_file)\n",
    "    .output(output_file, vcodec=\"libx264\", acodec=\"aac\")\n",
    "    .run()\n",
    ")"
   ]
  },
  {
   "cell_type": "code",
   "execution_count": 5,
   "id": "5456b24c",
   "metadata": {},
   "outputs": [
    {
     "name": "stderr",
     "output_type": "stream",
     "text": [
      "ffmpeg version 6.1.2 Copyright (c) 2000-2024 the FFmpeg developers\n",
      "  built with Apple clang version 16.0.0 (clang-1600.0.26.6)\n",
      "  configuration: --prefix='/opt/homebrew/Cellar/ffmpeg@6/6.1.2_9' --enable-shared --enable-pthreads --enable-version3 --cc=clang --host-cflags= --host-ldflags='-Wl,-ld_classic' --enable-ffplay --enable-gnutls --enable-gpl --enable-libaom --enable-libaribb24 --enable-libbluray --enable-libdav1d --enable-libharfbuzz --enable-libjxl --enable-libmp3lame --enable-libopus --enable-librav1e --enable-librist --enable-librubberband --enable-libsnappy --enable-libsrt --enable-libssh --enable-libsvtav1 --enable-libtesseract --enable-libtheora --enable-libvidstab --enable-libvmaf --enable-libvorbis --enable-libvpx --enable-libwebp --enable-libx264 --enable-libx265 --enable-libxml2 --enable-libxvid --enable-lzma --enable-libfontconfig --enable-libfreetype --enable-frei0r --enable-libass --enable-libopencore-amrnb --enable-libopencore-amrwb --enable-libopenjpeg --enable-libspeex --enable-libsoxr --enable-libzmq --enable-libzimg --disable-libjack --disable-indev=jack --enable-videotoolbox --enable-audiotoolbox --enable-neon\n",
      "  libavutil      58. 29.100 / 58. 29.100\n",
      "  libavcodec     60. 31.102 / 60. 31.102\n",
      "  libavformat    60. 16.100 / 60. 16.100\n",
      "  libavdevice    60.  3.100 / 60.  3.100\n",
      "  libavfilter     9. 12.100 /  9. 12.100\n",
      "  libswscale      7.  5.100 /  7.  5.100\n",
      "  libswresample   4. 12.100 /  4. 12.100\n",
      "  libpostproc    57.  3.100 / 57.  3.100\n",
      "Input #0, mov,mp4,m4a,3gp,3g2,mj2, from './unannotated/202508/eval_1.MOV':\n",
      "  Metadata:\n",
      "    major_brand     : qt  \n",
      "    minor_version   : 0\n",
      "    compatible_brands: qt  \n",
      "    creation_time   : 2025-08-01T01:37:54.000000Z\n",
      "    com.apple.quicktime.location.accuracy.horizontal: 7.543321\n",
      "    com.apple.quicktime.full-frame-rate-playback-intent: 0\n",
      "    com.apple.quicktime.location.ISO6709: +24.7993+125.2756+022.208/\n",
      "    com.apple.quicktime.make: Apple\n",
      "    com.apple.quicktime.model: iPhone 13\n",
      "    com.apple.quicktime.software: 18.3.2\n",
      "    com.apple.quicktime.creationdate: 2025-08-01T10:37:54+0900\n",
      "  Duration: 00:14:51.95, start: 0.000000, bitrate: 8866 kb/s\n",
      "  Stream #0:0[0x1](und): Video: hevc (Main 10) (hvc1 / 0x31637668), yuv420p10le(tv, bt2020nc/bt2020/arib-std-b67), 1920x1080, 8542 kb/s, 30 fps, 30 tbr, 600 tbn (default)\n",
      "    Metadata:\n",
      "      creation_time   : 2025-08-01T01:37:54.000000Z\n",
      "      handler_name    : Core Media Video\n",
      "      vendor_id       : [0][0][0][0]\n",
      "      encoder         : HEVC\n",
      "    Side data:\n",
      "      DOVI configuration record: version: 1.0, profile: 8, level: 4, rpu flag: 1, el flag: 0, bl flag: 1, compatibility id: 4\n",
      "  Stream #0:1[0x2](und): Audio: aac (LC) (mp4a / 0x6134706D), 44100 Hz, stereo, fltp, 191 kb/s (default)\n",
      "    Metadata:\n",
      "      creation_time   : 2025-08-01T01:37:54.000000Z\n",
      "      handler_name    : Core Media Audio\n",
      "      vendor_id       : [0][0][0][0]\n",
      "  Stream #0:2[0x3](und): Data: none (mebx / 0x7862656D) (default)\n",
      "    Metadata:\n",
      "      creation_time   : 2025-08-01T01:37:54.000000Z\n",
      "      handler_name    : Core Media Metadata\n",
      "  Stream #0:3[0x4](und): Data: none (mebx / 0x7862656D), 48 kb/s (default)\n",
      "    Metadata:\n",
      "      creation_time   : 2025-08-01T01:37:54.000000Z\n",
      "      handler_name    : Core Media Metadata\n",
      "  Stream #0:4[0x5](und): Data: none (mebx / 0x7862656D), 65 kb/s (default)\n",
      "    Metadata:\n",
      "      creation_time   : 2025-08-01T01:37:54.000000Z\n",
      "      handler_name    : Core Media Metadata\n",
      "  Stream #0:5[0x6](und): Data: none (mebx / 0x7862656D), 2 kb/s (default)\n",
      "    Metadata:\n",
      "      creation_time   : 2025-08-01T01:37:54.000000Z\n",
      "      handler_name    : Core Media Metadata\n",
      "  Stream #0:6[0x7](und): Data: none (mebx / 0x7862656D) (default)\n",
      "    Metadata:\n",
      "      creation_time   : 2025-08-01T01:37:54.000000Z\n",
      "      handler_name    : Core Media Metadata\n",
      "Stream mapping:\n",
      "  Stream #0:1 -> #0:0 (aac (native) -> pcm_s16le (native))\n",
      "Press [q] to stop, [?] for help\n",
      "Output #0, wav, to './unannotated/202508/eval_1.wav':\n",
      "  Metadata:\n",
      "    major_brand     : qt  \n",
      "    minor_version   : 0\n",
      "    compatible_brands: qt  \n",
      "    com.apple.quicktime.creationdate: 2025-08-01T10:37:54+0900\n",
      "    com.apple.quicktime.location.accuracy.horizontal: 7.543321\n",
      "    com.apple.quicktime.full-frame-rate-playback-intent: 0\n",
      "    com.apple.quicktime.location.ISO6709: +24.7993+125.2756+022.208/\n",
      "    com.apple.quicktime.make: Apple\n",
      "    com.apple.quicktime.model: iPhone 13\n",
      "    com.apple.quicktime.software: 18.3.2\n",
      "    ISFT            : Lavf60.16.100\n",
      "  Stream #0:0(und): Audio: pcm_s16le ([1][0][0][0] / 0x0001), 44100 Hz, stereo, s16, 1411 kb/s (default)\n",
      "    Metadata:\n",
      "      creation_time   : 2025-08-01T01:37:54.000000Z\n",
      "      handler_name    : Core Media Audio\n",
      "      vendor_id       : [0][0][0][0]\n",
      "      encoder         : Lavc60.31.102 pcm_s16le\n",
      "[out#0/wav @ 0x132011870] video:0kB audio:153652kB subtitle:0kB other streams:0kB global headers:0kB muxing overhead: 0.000050%\n",
      "size=  153652kB time=00:14:51.92 bitrate=1411.2kbits/s speed=1.05e+03x    \n"
     ]
    },
    {
     "data": {
      "text/plain": [
       "(None, None)"
      ]
     },
     "execution_count": 5,
     "metadata": {},
     "output_type": "execute_result"
    }
   ],
   "source": [
    "# to WAV\n",
    "wav_output_file = os.path.join(data_dir, \"eval_1.wav\")\n",
    "ffmpeg.input(input_file).output(wav_output_file, acodec=\"pcm_s16le\", ar=44100).run()"
   ]
  },
  {
   "cell_type": "code",
   "execution_count": 8,
   "id": "eef7c948",
   "metadata": {},
   "outputs": [
    {
     "name": "stderr",
     "output_type": "stream",
     "text": [
      "ffmpeg version 6.1.2 Copyright (c) 2000-2024 the FFmpeg developers\n",
      "  built with Apple clang version 16.0.0 (clang-1600.0.26.6)\n",
      "  configuration: --prefix='/opt/homebrew/Cellar/ffmpeg@6/6.1.2_9' --enable-shared --enable-pthreads --enable-version3 --cc=clang --host-cflags= --host-ldflags='-Wl,-ld_classic' --enable-ffplay --enable-gnutls --enable-gpl --enable-libaom --enable-libaribb24 --enable-libbluray --enable-libdav1d --enable-libharfbuzz --enable-libjxl --enable-libmp3lame --enable-libopus --enable-librav1e --enable-librist --enable-librubberband --enable-libsnappy --enable-libsrt --enable-libssh --enable-libsvtav1 --enable-libtesseract --enable-libtheora --enable-libvidstab --enable-libvmaf --enable-libvorbis --enable-libvpx --enable-libwebp --enable-libx264 --enable-libx265 --enable-libxml2 --enable-libxvid --enable-lzma --enable-libfontconfig --enable-libfreetype --enable-frei0r --enable-libass --enable-libopencore-amrnb --enable-libopencore-amrwb --enable-libopenjpeg --enable-libspeex --enable-libsoxr --enable-libzmq --enable-libzimg --disable-libjack --disable-indev=jack --enable-videotoolbox --enable-audiotoolbox --enable-neon\n",
      "  libavutil      58. 29.100 / 58. 29.100\n",
      "  libavcodec     60. 31.102 / 60. 31.102\n",
      "  libavformat    60. 16.100 / 60. 16.100\n",
      "  libavdevice    60.  3.100 / 60.  3.100\n",
      "  libavfilter     9. 12.100 /  9. 12.100\n",
      "  libswscale      7.  5.100 /  7.  5.100\n",
      "  libswresample   4. 12.100 /  4. 12.100\n",
      "  libpostproc    57.  3.100 / 57.  3.100\n",
      "Input #0, mov,mp4,m4a,3gp,3g2,mj2, from './unannotated/202508/eval_1.MOV':\n",
      "  Metadata:\n",
      "    major_brand     : qt  \n",
      "    minor_version   : 0\n",
      "    compatible_brands: qt  \n",
      "    creation_time   : 2025-08-01T01:37:54.000000Z\n",
      "    com.apple.quicktime.location.accuracy.horizontal: 7.543321\n",
      "    com.apple.quicktime.full-frame-rate-playback-intent: 0\n",
      "    com.apple.quicktime.location.ISO6709: +24.7993+125.2756+022.208/\n",
      "    com.apple.quicktime.make: Apple\n",
      "    com.apple.quicktime.model: iPhone 13\n",
      "    com.apple.quicktime.software: 18.3.2\n",
      "    com.apple.quicktime.creationdate: 2025-08-01T10:37:54+0900\n",
      "  Duration: 00:14:51.95, start: 0.000000, bitrate: 8866 kb/s\n",
      "  Stream #0:0[0x1](und): Video: hevc (Main 10) (hvc1 / 0x31637668), yuv420p10le(tv, bt2020nc/bt2020/arib-std-b67), 1920x1080, 8542 kb/s, 30 fps, 30 tbr, 600 tbn (default)\n",
      "    Metadata:\n",
      "      creation_time   : 2025-08-01T01:37:54.000000Z\n",
      "      handler_name    : Core Media Video\n",
      "      vendor_id       : [0][0][0][0]\n",
      "      encoder         : HEVC\n",
      "    Side data:\n",
      "      DOVI configuration record: version: 1.0, profile: 8, level: 4, rpu flag: 1, el flag: 0, bl flag: 1, compatibility id: 4\n",
      "  Stream #0:1[0x2](und): Audio: aac (LC) (mp4a / 0x6134706D), 44100 Hz, stereo, fltp, 191 kb/s (default)\n",
      "    Metadata:\n",
      "      creation_time   : 2025-08-01T01:37:54.000000Z\n",
      "      handler_name    : Core Media Audio\n",
      "      vendor_id       : [0][0][0][0]\n",
      "  Stream #0:2[0x3](und): Data: none (mebx / 0x7862656D) (default)\n",
      "    Metadata:\n",
      "      creation_time   : 2025-08-01T01:37:54.000000Z\n",
      "      handler_name    : Core Media Metadata\n",
      "  Stream #0:3[0x4](und): Data: none (mebx / 0x7862656D), 48 kb/s (default)\n",
      "    Metadata:\n",
      "      creation_time   : 2025-08-01T01:37:54.000000Z\n",
      "      handler_name    : Core Media Metadata\n",
      "  Stream #0:4[0x5](und): Data: none (mebx / 0x7862656D), 65 kb/s (default)\n",
      "    Metadata:\n",
      "      creation_time   : 2025-08-01T01:37:54.000000Z\n",
      "      handler_name    : Core Media Metadata\n",
      "  Stream #0:5[0x6](und): Data: none (mebx / 0x7862656D), 2 kb/s (default)\n",
      "    Metadata:\n",
      "      creation_time   : 2025-08-01T01:37:54.000000Z\n",
      "      handler_name    : Core Media Metadata\n",
      "  Stream #0:6[0x7](und): Data: none (mebx / 0x7862656D) (default)\n",
      "    Metadata:\n",
      "      creation_time   : 2025-08-01T01:37:54.000000Z\n",
      "      handler_name    : Core Media Metadata\n",
      "The -map_channel option is deprecated and will be removed. It can be replaced by the 'pan' filter, or in some cases by combinations of 'channelsplit', 'channelmap', 'amerge' filters.\n",
      "Stream mapping:\n",
      "  Stream #0:1 -> #0:0 (aac (native) -> pcm_s16le (native))\n",
      "Press [q] to stop, [?] for help\n",
      "[af#0:0 @ 0x14cf0c700] -map_channel is forwarded to lavfi similarly to -af pan=mono|c0=c1.\n",
      "[pan @ 0x14cf15810] Pure channel mapping detected: 1\n",
      "Output #0, wav, to './unannotated/202508/eval_1_right.wav':\n",
      "  Metadata:\n",
      "    major_brand     : qt  \n",
      "    minor_version   : 0\n",
      "    compatible_brands: qt  \n",
      "    com.apple.quicktime.creationdate: 2025-08-01T10:37:54+0900\n",
      "    com.apple.quicktime.location.accuracy.horizontal: 7.543321\n",
      "    com.apple.quicktime.full-frame-rate-playback-intent: 0\n",
      "    com.apple.quicktime.location.ISO6709: +24.7993+125.2756+022.208/\n",
      "    com.apple.quicktime.make: Apple\n",
      "    com.apple.quicktime.model: iPhone 13\n",
      "    com.apple.quicktime.software: 18.3.2\n",
      "    ISFT            : Lavf60.16.100\n",
      "  Stream #0:0(und): Audio: pcm_s16le ([1][0][0][0] / 0x0001), 44100 Hz, mono, s16, 705 kb/s (default)\n",
      "    Metadata:\n",
      "      creation_time   : 2025-08-01T01:37:54.000000Z\n",
      "      handler_name    : Core Media Audio\n",
      "      vendor_id       : [0][0][0][0]\n",
      "      encoder         : Lavc60.31.102 pcm_s16le\n",
      "[out#0/wav @ 0x14cf0b4b0] video:0kB audio:76826kB subtitle:0kB other streams:0kB global headers:0kB muxing overhead: 0.000099%\n",
      "size=   76826kB time=00:14:51.92 bitrate= 705.6kbits/s speed=1.04e+03x    \n"
     ]
    },
    {
     "data": {
      "text/plain": [
       "CompletedProcess(args=['ffmpeg', '-i', './unannotated/202508/eval_1.MOV', '-map_channel', '0.1.1', './unannotated/202508/eval_1_right.wav'], returncode=0)"
      ]
     },
     "execution_count": 8,
     "metadata": {},
     "output_type": "execute_result"
    }
   ],
   "source": [
    "import subprocess\n",
    "\n",
    "input_file = os.path.join(data_dir, \"eval_1.MOV\")\n",
    "wav_output_file = os.path.join(data_dir, \"eval_1_right.wav\")\n",
    "\n",
    "subprocess.run([\n",
    "    \"ffmpeg\", \"-i\", input_file,\n",
    "    \"-map_channel\", \"0.1.1\",  # 0=input file index, 1=audio stream index, 0=right channel\n",
    "    wav_output_file\n",
    "])"
   ]
  },
  {
   "cell_type": "markdown",
   "id": "fd73d33e",
   "metadata": {},
   "source": [
    "## 新公民館"
   ]
  },
  {
   "cell_type": "code",
   "execution_count": 3,
   "id": "87eff225",
   "metadata": {},
   "outputs": [
    {
     "name": "stderr",
     "output_type": "stream",
     "text": [
      "ffmpeg version 6.1.2 Copyright (c) 2000-2024 the FFmpeg developers\n",
      "  built with Apple clang version 16.0.0 (clang-1600.0.26.6)\n",
      "  configuration: --prefix='/opt/homebrew/Cellar/ffmpeg@6/6.1.2_9' --enable-shared --enable-pthreads --enable-version3 --cc=clang --host-cflags= --host-ldflags='-Wl,-ld_classic' --enable-ffplay --enable-gnutls --enable-gpl --enable-libaom --enable-libaribb24 --enable-libbluray --enable-libdav1d --enable-libharfbuzz --enable-libjxl --enable-libmp3lame --enable-libopus --enable-librav1e --enable-librist --enable-librubberband --enable-libsnappy --enable-libsrt --enable-libssh --enable-libsvtav1 --enable-libtesseract --enable-libtheora --enable-libvidstab --enable-libvmaf --enable-libvorbis --enable-libvpx --enable-libwebp --enable-libx264 --enable-libx265 --enable-libxml2 --enable-libxvid --enable-lzma --enable-libfontconfig --enable-libfreetype --enable-frei0r --enable-libass --enable-libopencore-amrnb --enable-libopencore-amrwb --enable-libopenjpeg --enable-libspeex --enable-libsoxr --enable-libzmq --enable-libzimg --disable-libjack --disable-indev=jack --enable-videotoolbox --enable-audiotoolbox --enable-neon\n",
      "  libavutil      58. 29.100 / 58. 29.100\n",
      "  libavcodec     60. 31.102 / 60. 31.102\n",
      "  libavformat    60. 16.100 / 60. 16.100\n",
      "  libavdevice    60.  3.100 / 60.  3.100\n",
      "  libavfilter     9. 12.100 /  9. 12.100\n",
      "  libswscale      7.  5.100 /  7.  5.100\n",
      "  libswresample   4. 12.100 /  4. 12.100\n",
      "  libpostproc    57.  3.100 / 57.  3.100\n",
      "Input #0, mov,mp4,m4a,3gp,3g2,mj2, from './unannotated/sinkoominkan.mp4':\n",
      "  Metadata:\n",
      "    major_brand     : mp42\n",
      "    minor_version   : 1\n",
      "    compatible_brands: isommp41mp42\n",
      "    creation_time   : 2024-10-23T07:32:52.000000Z\n",
      "  Duration: 00:05:23.93, start: 0.000000, bitrate: 20160 kb/s\n",
      "  Stream #0:0[0x1](jpn): Audio: aac (LC) (mp4a / 0x6134706D), 48000 Hz, stereo, fltp, 103 kb/s (default)\n",
      "    Metadata:\n",
      "      creation_time   : 2024-10-23T07:32:52.000000Z\n",
      "      handler_name    : Core Media Audio\n",
      "      vendor_id       : [0][0][0][0]\n",
      "  Stream #0:1[0x2](und): Video: h264 (High) (avc1 / 0x31637661), yuv420p(tv, bt2020nc/bt2020/bt709, progressive), 1920x1080, 20035 kb/s, SAR 1:1 DAR 16:9, 30 fps, 30 tbr, 30k tbn (default)\n",
      "    Metadata:\n",
      "      creation_time   : 2024-10-23T07:32:52.000000Z\n",
      "      handler_name    : Core Media Video\n",
      "      vendor_id       : [0][0][0][0]\n",
      "Stream mapping:\n",
      "  Stream #0:0 -> #0:0 (aac (native) -> pcm_s16le (native))\n",
      "Press [q] to stop, [?] for help\n",
      "Output #0, wav, to './unannotated/sinkoominkan.wav':\n",
      "  Metadata:\n",
      "    major_brand     : mp42\n",
      "    minor_version   : 1\n",
      "    compatible_brands: isommp41mp42\n",
      "    ISFT            : Lavf60.16.100\n",
      "  Stream #0:0(jpn): Audio: pcm_s16le ([1][0][0][0] / 0x0001), 44100 Hz, stereo, s16, 1411 kb/s (default)\n",
      "    Metadata:\n",
      "      creation_time   : 2024-10-23T07:32:52.000000Z\n",
      "      handler_name    : Core Media Audio\n",
      "      vendor_id       : [0][0][0][0]\n",
      "      encoder         : Lavc60.31.102 pcm_s16le\n",
      "[out#0/wav @ 0x13ef0fb70] video:0kB audio:55805kB subtitle:0kB other streams:0kB global headers:0kB muxing overhead: 0.000136%\n",
      "size=   55805kB time=00:05:23.94 bitrate=1411.2kbits/s speed= 576x    \n"
     ]
    },
    {
     "data": {
      "text/plain": [
       "(None, None)"
      ]
     },
     "execution_count": 3,
     "metadata": {},
     "output_type": "execute_result"
    }
   ],
   "source": [
    "import ffmpeg\n",
    "import os\n",
    "\n",
    "data_dir = \"./unannotated\"\n",
    "input_file = os.path.join(data_dir, \"sinkoominkan.mp4\")\n",
    "wav_output_file = os.path.join(data_dir, \"sinkoominkan.wav\")\n",
    "\n",
    "ffmpeg.input(input_file).output(wav_output_file, acodec=\"pcm_s16le\", ar=44100).run()"
   ]
  },
  {
   "cell_type": "markdown",
   "id": "6f9c6fc0",
   "metadata": {},
   "source": [
    "## New audio"
   ]
  },
  {
   "cell_type": "code",
   "execution_count": 21,
   "id": "0dbc14a7",
   "metadata": {},
   "outputs": [
    {
     "name": "stderr",
     "output_type": "stream",
     "text": [
      "ffmpeg version 6.1.2 Copyright (c) 2000-2024 the FFmpeg developers\n",
      "  built with Apple clang version 16.0.0 (clang-1600.0.26.6)\n",
      "  configuration: --prefix='/opt/homebrew/Cellar/ffmpeg@6/6.1.2_9' --enable-shared --enable-pthreads --enable-version3 --cc=clang --host-cflags= --host-ldflags='-Wl,-ld_classic' --enable-ffplay --enable-gnutls --enable-gpl --enable-libaom --enable-libaribb24 --enable-libbluray --enable-libdav1d --enable-libharfbuzz --enable-libjxl --enable-libmp3lame --enable-libopus --enable-librav1e --enable-librist --enable-librubberband --enable-libsnappy --enable-libsrt --enable-libssh --enable-libsvtav1 --enable-libtesseract --enable-libtheora --enable-libvidstab --enable-libvmaf --enable-libvorbis --enable-libvpx --enable-libwebp --enable-libx264 --enable-libx265 --enable-libxml2 --enable-libxvid --enable-lzma --enable-libfontconfig --enable-libfreetype --enable-frei0r --enable-libass --enable-libopencore-amrnb --enable-libopencore-amrwb --enable-libopenjpeg --enable-libspeex --enable-libsoxr --enable-libzmq --enable-libzimg --disable-libjack --disable-indev=jack --enable-videotoolbox --enable-audiotoolbox --enable-neon\n",
      "  libavutil      58. 29.100 / 58. 29.100\n",
      "  libavcodec     60. 31.102 / 60. 31.102\n",
      "  libavformat    60. 16.100 / 60. 16.100\n",
      "  libavdevice    60.  3.100 / 60.  3.100\n",
      "  libavfilter     9. 12.100 /  9. 12.100\n",
      "  libswscale      7.  5.100 /  7.  5.100\n",
      "  libswresample   4. 12.100 /  4. 12.100\n",
      "  libpostproc    57.  3.100 / 57.  3.100\n",
      "Input #0, mov,mp4,m4a,3gp,3g2,mj2, from '/Users/chihirot/Downloads/Youtube-Ikema/I0045_系統/I0045_若いころの話/I0045_若いころの話.mp4':\n",
      "  Metadata:\n",
      "    major_brand     : mp42\n",
      "    minor_version   : 0\n",
      "    compatible_brands: isommp42\n",
      "    encoder         : Google\n",
      "  Duration: 00:01:47.58, start: 0.000000, bitrate: 102 kb/s\n",
      "  Stream #0:0[0x1](und): Video: h264 (Main) (avc1 / 0x31637661), yuv420p(tv, bt709, progressive), 480x360 [SAR 1:1 DAR 4:3], 4 kb/s, 29.97 fps, 29.97 tbr, 30k tbn (default)\n",
      "    Metadata:\n",
      "      handler_name    : ISO Media file produced by Google Inc.\n",
      "      vendor_id       : [0][0][0][0]\n",
      "  Stream #0:1[0x2](und): Audio: aac (LC) (mp4a / 0x6134706D), 44100 Hz, stereo, fltp, 95 kb/s (default)\n",
      "    Metadata:\n",
      "      handler_name    : ISO Media file produced by Google Inc.\n",
      "      vendor_id       : [0][0][0][0]\n",
      "Stream mapping:\n",
      "  Stream #0:1 -> #0:0 (aac (native) -> pcm_s16le (native))\n",
      "Press [q] to stop, [?] for help\n",
      "Output #0, wav, to '/Users/chihirot/Downloads/Youtube-Ikema/I0045_系統/I0045_若いころの話/wakaikoro.wav':\n",
      "  Metadata:\n",
      "    major_brand     : mp42\n",
      "    minor_version   : 0\n",
      "    compatible_brands: isommp42\n",
      "    ISFT            : Lavf60.16.100\n",
      "  Stream #0:0(und): Audio: pcm_s16le ([1][0][0][0] / 0x0001), 44100 Hz, stereo, s16, 1411 kb/s (default)\n",
      "    Metadata:\n",
      "      handler_name    : ISO Media file produced by Google Inc.\n",
      "      vendor_id       : [0][0][0][0]\n",
      "      encoder         : Lavc60.31.102 pcm_s16le\n",
      "[out#0/wav @ 0x145605270] video:0kB audio:18532kB subtitle:0kB other streams:0kB global headers:0kB muxing overhead: 0.000411%\n",
      "size=   18532kB time=00:01:47.55 bitrate=1411.5kbits/s speed=1.28e+03x    \n"
     ]
    },
    {
     "data": {
      "text/plain": [
       "(None, None)"
      ]
     },
     "execution_count": 21,
     "metadata": {},
     "output_type": "execute_result"
    }
   ],
   "source": [
    "import os\n",
    "import ffmpeg\n",
    "\n",
    "data_dir = \"/Users/chihirot/Downloads/Youtube-Ikema/\"\n",
    "targets = [\n",
    "    {\"dir\": \"I0487_つっちゅ\", \"input_file\": \"I0487_つっちゅ.mp4\", \"output_file\": \"I0487_cIccyu.wav\"},\n",
    "    {\"dir\": \"I0490_さばうつがー\", \"input_file\": \"I0490_さばうつがー.mp4\", \"output_file\": \"I0490_sabaucIgaa.wav\"},\n",
    "    {\"dir\": \"I0486_グーニャ幼虫\", \"input_file\": \"I0483_グーニャの幼虫.mp4\", \"output_file\": \"I0486_guunya.wav\"},\n",
    "    {\"dir\": \"I0483/I0483_うたき\", \"input_file\": \"I0483_うたき.mp4\", \"output_file\": \"utaki.wav\"},\n",
    "    {\"dir\": \"I0483/I0483_豚肉と大根\", \"input_file\": \"I0483_豚肉と大根.mp4\", \"output_file\": \"butanikutodaikon.wav\"},\n",
    "    {\"dir\": \"I0482_pic/I0482_ふじゃたてぃんぷら\", \"input_file\": \"I0482_ふじゃたティンプラ.mp4\", \"output_file\": \"ffuzyatatinpura.wav\"},\n",
    "    {\"dir\": \"I0482_pic/I0482‗湧き水\", \"input_file\": \"I0482_湧き水.mp4\", \"output_file\": \"wakimizu.wav\"},\n",
    "    {\"dir\": \"I0404_ビトゥリードゥー\", \"input_file\": \"I0404_bituriiduu_Vl.MTS\", \"output_file\": \"bituriiduu.wav\"},\n",
    "    {\"dir\": \"I0307_ますむいうや_上原\", \"input_file\": \"I0307_masImuiuya_Va.MPG\", \"output_file\": \"masImuiuya.wav\"},\n",
    "    {\"dir\": \"I0096_二枚貝/I0096_nimaigai_senso_srt\", \"input_file\": \"I0096_戦争のころの話(wartime experience).mp4\", \"output_file\": \"nimaigai_senso.wav\"},\n",
    "    {\"dir\": \"I0045_系統/I0045_なまこの話\", \"input_file\": \"I0045_keito_ぬーまぬはなずつー（なまこの話）.mp4\", \"output_file\": \"namakonohanashi.wav\"},\n",
    "    {\"dir\": \"I0045_系統/I0045_小エビ取り\", \"input_file\": \"I0045_小エビ取り(shrimp chatching).mp4\", \"output_file\": \"koebitori.wav\"},\n",
    "    {\"dir\": \"I0045_系統/I0045_若いころの話\", \"input_file\": \"I0045_若いころの話.mp4\", \"output_file\": \"wakaikoro.wav\"},   \n",
    "]\n",
    "\n",
    "\n",
    "# from mp4 to wav\n",
    "idx = 12\n",
    "input_file = os.path.join(data_dir, targets[idx][\"dir\"], targets[idx][\"input_file\"])\n",
    "wav_output_file = os.path.join(data_dir, targets[idx][\"dir\"], targets[idx][\"output_file\"])\n",
    "ffmpeg.input(input_file).output(wav_output_file, acodec=\"pcm_s16le\", ar=44100).run() # add `ac=1` if mono is needed"
   ]
  },
  {
   "cell_type": "code",
   "execution_count": null,
   "id": "593dce57",
   "metadata": {},
   "outputs": [],
   "source": []
  }
 ],
 "metadata": {
  "kernelspec": {
   "display_name": "ikema-asr-py3.12 (3.12.6)",
   "language": "python",
   "name": "python3"
  },
  "language_info": {
   "codemirror_mode": {
    "name": "ipython",
    "version": 3
   },
   "file_extension": ".py",
   "mimetype": "text/x-python",
   "name": "python",
   "nbconvert_exporter": "python",
   "pygments_lexer": "ipython3",
   "version": "3.12.6"
  }
 },
 "nbformat": 4,
 "nbformat_minor": 5
}
